<svg width="16" height="16" viewBox="0 0 16 16" fill="none" xmlns="http://www.w3.org/2000/svg">
<g id="arrow-next">
<path id="Shape" fill-rule="evenodd" clip-rule="evenodd" d="M11.586 6.99989L2 6.99989C1.448 6.99989 1 7.44789 1 7.99989C1 8.55189 1.448 8.99989 2 8.99989L11.586 8.99989L8.975 11.6109C8.584 12.0009 8.584 12.6349 8.975 13.0249C9.365 13.4159 9.999 13.4159 10.389 13.0249L14.696 8.71889C14.699 8.71489 14.703 8.71089 14.707 8.70689C14.902 8.51189 15 8.25589 15 7.99989C15 7.74389 14.902 7.48789 14.707 7.29289C14.703 7.28889 14.699 7.28489 14.696 7.28089L10.389 2.97489C9.999 2.58389 9.365 2.58389 8.975 2.97489C8.584 3.36489 8.584 3.99889 8.975 4.38889L11.586 6.99989Z" fill="#202020"/>
</g>
</svg>
