<svg width="16" height="16" viewBox="0 0 16 16" fill="none" xmlns="http://www.w3.org/2000/svg">
<g id="arrow-previous">
<path id="Shape" fill-rule="evenodd" clip-rule="evenodd" d="M4.414 6.99989L14 6.99989C14.552 6.99989 15 7.44789 15 7.99989C15 8.55189 14.552 8.99989 14 8.99989L4.414 8.99989L7.025 11.6109C7.416 12.0009 7.416 12.6349 7.025 13.0249C6.635 13.4159 6.001 13.4159 5.611 13.0249L1.304 8.71889C1.301 8.71489 1.297 8.71089 1.293 8.70689C1.098 8.51189 1 8.25589 1 7.99989C1 7.74389 1.098 7.48789 1.293 7.29289C1.297 7.28889 1.301 7.28489 1.304 7.28089L5.611 2.97489C6.001 2.58389 6.635 2.58389 7.025 2.97489C7.416 3.36489 7.416 3.99889 7.025 4.38889L4.414 6.99989Z" fill="#202020"/>
</g>
</svg>
