<svg width="16" height="16" viewBox="0 0 16 16" fill="none" xmlns="http://www.w3.org/2000/svg">
<g id="list-unnumbered_s__355">
<path id="Shape" fill-rule="evenodd" clip-rule="evenodd" d="M13 12C13.552 12 14 12.448 14 13C14 13.552 13.552 14 13 14H7C6.448 14 6 13.552 6 13C6 12.448 6.448 12 7 12H13ZM3 12C3.552 12 4 12.448 4 13C4 13.552 3.552 14 3 14C2.448 14 2 13.552 2 13C2 12.448 2.448 12 3 12ZM13 7C13.552 7 14 7.448 14 8C14 8.552 13.552 9 13 9H7C6.448 9 6 8.552 6 8C6 7.448 6.448 7 7 7H13ZM3 7C3.552 7 4 7.448 4 8C4 8.552 3.552 9 3 9C2.448 9 2 8.552 2 8C2 7.448 2.448 7 3 7ZM3 2C3.552 2 4 2.448 4 3C4 3.552 3.552 4 3 4C2.448 4 2 3.552 2 3C2 2.448 2.448 2 3 2ZM13 2C13.552 2 14 2.448 14 3C14 3.552 13.552 4 13 4H7C6.448 4 6 3.552 6 3C6 2.448 6.448 2 7 2H13Z" fill="#202020"/>
</g>
</svg>
