<svg width="16" height="17" viewBox="0 0 16 17" fill="none" xmlns="http://www.w3.org/2000/svg">
<path d="M12.2427 12.6425L8 16.8852L3.75734 12.6425C2.91823 11.8034 2.34679 10.7343 2.11529 9.57042C1.88378 8.40653 2.0026 7.20014 2.45673 6.10378C2.91086 5.00743 3.6799 4.07036 4.66659 3.41108C5.65328 2.75179 6.81332 2.3999 8 2.3999C9.18669 2.3999 10.3467 2.75179 11.3334 3.41108C12.3201 4.07036 13.0891 5.00743 13.5433 6.10378C13.9974 7.20014 14.1162 8.40653 13.8847 9.57042C13.6532 10.7343 13.0818 11.8034 12.2427 12.6425ZM8 11.0665C8.70725 11.0665 9.38552 10.7856 9.88562 10.2855C10.3857 9.78537 10.6667 9.10709 10.6667 8.39985C10.6667 7.69261 10.3857 7.01433 9.88562 6.51423C9.38552 6.01413 8.70725 5.73318 8 5.73318C7.29276 5.73318 6.61448 6.01413 6.11438 6.51423C5.61429 7.01433 5.33334 7.69261 5.33334 8.39985C5.33334 9.10709 5.61429 9.78537 6.11438 10.2855C6.61448 10.7856 7.29276 11.0665 8 11.0665Z" fill="#A970AF"/>
</svg>
