<svg width="16" height="16" viewBox="0 0 16 16" fill="none" xmlns="http://www.w3.org/2000/svg">
<g id="navigation__230">
<path id="Fill 1" fill-rule="evenodd" clip-rule="evenodd" d="M0.731955 4.4426C0.300057 4.58956 0.00712662 4.99147 0.000128273 5.44736C-0.00687007 5.90325 0.273064 6.31516 0.699963 6.47512C3.21737 7.41889 6.50259 8.6506 6.50259 8.6506C6.50259 8.6506 7.90326 12.0338 8.95201 14.5632C9.12497 14.9821 9.54087 15.248 9.99276 15.229C10.4457 15.21 10.8386 14.9111 10.9765 14.4802C12.1223 10.9091 14.0798 4.80751 15.1285 1.53629C15.2645 1.11339 15.1495 0.649498 14.8326 0.337571C14.5157 0.0256452 14.0498 -0.0803297 13.6289 0.0626365C10.3797 1.16638 4.31611 3.22589 0.731955 4.4426Z" fill="white"/>
</g>
</svg>
