<svg width="16" height="16" viewBox="0 0 16 16" fill="none" xmlns="http://www.w3.org/2000/svg">
<g id="search_s__402">
<path id="Shape" fill-rule="evenodd" clip-rule="evenodd" d="M10.5401 12.036C9.66575 12.627 8.61292 12.9718 7.47945 12.9718C4.45558 12.9718 2 10.5133 2 7.48589C2 4.45846 4.45558 2 7.47945 2C10.5033 2 12.9589 4.45846 12.9589 7.48589C12.9589 8.61285 12.6184 9.66144 12.0352 10.5337L13.69 12.1897C14.1033 12.6034 14.1033 13.2759 13.69 13.6897C13.2767 14.1034 12.6051 14.1034 12.1918 13.6897L10.5401 12.036ZM7.47945 3.94122C9.43405 3.94122 11.02 5.529 11.02 7.48589C11.02 9.44279 9.43405 11.0306 7.47945 11.0306C5.52485 11.0306 3.93894 9.44279 3.93894 7.48589C3.93894 5.529 5.52485 3.94122 7.47945 3.94122Z" fill="#905796"/>
</g>
</svg>
