<svg width="20" height="21" viewBox="0 0 20 21" fill="none" xmlns="http://www.w3.org/2000/svg">
<g id="warning-triangle__259">
<path id="Shape" fill-rule="evenodd" clip-rule="evenodd" d="M18.125 19.25H1.875C0.84 19.25 0 18.41 0 17.375C0 17.0175 0.1 16.6838 0.27375 16.4L8.6275 2.555C8.8975 2.075 9.41125 1.75 10 1.75C10.65 1.75 11.2075 2.145 11.4475 2.7075L19.72 16.3888C19.8975 16.675 20 17.0138 20 17.375C20 18.41 19.16 19.25 18.125 19.25ZM11.25 15.5C11.25 14.81 10.69 14.25 10 14.25C9.31 14.25 8.75 14.81 8.75 15.5C8.75 16.19 9.31 16.75 10 16.75C10.69 16.75 11.25 16.19 11.25 15.5ZM11.25 8C11.25 7.31 10.69 6.75 10 6.75C9.31 6.75 8.75 7.31 8.75 8V11.75C8.75 12.44 9.31 13 10 13C10.69 13 11.25 12.44 11.25 11.75V8Z" fill="#905796"/>
</g>
</svg>
