<svg width="20" height="21" viewBox="0 0 20 21" fill="none" xmlns="http://www.w3.org/2000/svg">
<g id="security-check__272">
<path id="Shape" fill-rule="evenodd" clip-rule="evenodd" d="M10.07 1.75001C13.0475 1.75001 16.31 2.17501 17.4925 2.52876C18.2375 2.82501 18.7275 3.54751 18.7275 4.35001C18.75 6.19501 18.75 9.59751 18.75 12.4163C18.75 16.4925 12.8263 20.4688 10.0325 20.5H10C7.22 20.5 1.25 16.5088 1.25 12.4163C1.25 9.59751 1.25 6.19501 1.2725 4.35001C1.2725 3.54751 1.7625 2.82501 2.5075 2.52876C3.69875 2.17126 7.005 1.74376 10 1.75001H10.07ZM13.5112 7.18876C13.6862 7.20001 13.8537 7.24001 14.0112 7.31751C14.4125 7.51751 14.6812 7.93001 14.7025 8.37876C14.7087 8.51376 14.6925 8.64876 14.6562 8.77876C14.6025 8.96626 14.505 9.13251 14.3775 9.27876C12.95 10.7738 11.4875 12.2363 9.9925 13.6638C9.89125 13.7525 9.78 13.8288 9.65625 13.8838C9.33625 14.0238 8.965 14.0238 8.64625 13.8838C8.52125 13.8288 8.41125 13.7525 8.30875 13.6638C7.4325 12.8263 6.575 11.97 5.73875 11.0938C5.61125 10.9463 5.51375 10.7813 5.46 10.5938C5.41875 10.445 5.40375 10.29 5.4175 10.1363C5.4325 9.98251 5.475 9.83251 5.54375 9.69376C5.60375 9.57376 5.68375 9.46251 5.77875 9.36751C6.09625 9.05001 6.5725 8.92626 7.005 9.04876C7.21125 9.10751 7.39125 9.22001 7.54625 9.36751L9.15125 10.9725C10.3038 9.81876 11.4325 8.64001 12.6112 7.51251C12.655 7.47501 12.655 7.47501 12.7 7.43876C12.8925 7.30126 13.1025 7.22001 13.3387 7.19251C13.3962 7.18876 13.4537 7.18626 13.5112 7.18876Z" fill="#905796"/>
</g>
</svg>
