<svg width="20" height="21" viewBox="0 0 20 21" fill="none" xmlns="http://www.w3.org/2000/svg">
<g id="time__251">
<path id="Shape" fill-rule="evenodd" clip-rule="evenodd" d="M10 0.5C15.5188 0.5 20 4.98125 20 10.5C20 16.0188 15.5188 20.5 10 20.5C4.48125 20.5 0 16.0188 0 10.5C0 4.98125 4.48125 0.5 10 0.5ZM9.53625 11.9888C9.075 11.805 8.74875 11.3538 8.74875 10.8275V6.75C8.74875 6.06 9.30875 5.5 9.99875 5.5C10.6887 5.5 11.2487 6.06 11.2487 6.75V10.0913L13.2913 11.27C13.8888 11.615 14.0938 12.38 13.7487 12.9775C13.4037 13.575 12.6388 13.78 12.0413 13.435L9.53625 11.9888Z" fill="#905796"/>
</g>
</svg>
